<svg id="logo" xmlns="http://www.w3.org/2000/svg" xmlns:xlink="http://www.w3.org/1999/xlink" viewBox="0 0 45.35 45.35"><defs><style>.cls-1{fill:url(#radial-gradient);}.cls-2{fill:none;stroke:#fff;stroke-miterlimit:10;stroke-width:2.47px;}.cls-3{fill:#42a647;}.cls-4{fill:#1785e6;}.cls-5{fill:#fff;}</style><radialGradient id="radial-gradient" cx="22.68" cy="22.68" r="22.68" gradientUnits="userSpaceOnUse"><stop offset="0.5" stop-opacity="0.1"/><stop offset="1" stop-opacity="0"/></radialGradient></defs><title>logo</title><circle class="cls-1" cx="22.68" cy="22.68" r="22.68"/><line class="cls-2" x1="8.65" y1="4.14" x2="24.1" y2="20.7"/><line class="cls-2" x1="40.04" y1="5.5" x2="24.1" y2="20.7"/><line class="cls-2" x1="41.21" y1="34.17" x2="24.1" y2="20.7"/><line class="cls-2" x1="18.91" y1="41.21" x2="24.1" y2="20.7"/><line class="cls-2" x1="4.14" y1="28.24" x2="24.1" y2="20.7"/><circle class="cls-3" cx="24.1" cy="20.7" r="11.99"/><circle class="cls-4" cx="8.65" cy="4.14" r="4.14"/><circle class="cls-4" cx="40.04" cy="5.5" r="4.14"/><circle class="cls-4" cx="41.21" cy="34.17" r="4.14"/><circle class="cls-4" cx="18.91" cy="41.21" r="4.14"/><circle class="cls-4" cx="4.14" cy="28.24" r="4.14"/><path class="cls-5" d="M21,14.92a6,6,0,0,1,3-1c0-.65,0-1.24,0-1.93a10.54,10.54,0,0,1,1.66-.21c0,.71,0,1.36-.08,2.1a6.52,6.52,0,0,1,2.88.63,3.87,3.87,0,0,1-1,2.23,6.39,6.39,0,0,0-1.91-1c0,1-.06,2-.11,3,2.23.65,3.46,1.6,3.46,3.55a3.73,3.73,0,0,1-1.16,2.79,5.12,5.12,0,0,1-3.3,1.26c0,.69,0,1.32-.06,2-.52.06-1,.1-1.55.13,0-.69,0-1.37.06-2.08a8.07,8.07,0,0,1-3.67-.82,4.49,4.49,0,0,1,1.18-2.18,7.51,7.51,0,0,0,2.56,1.22c0-1.07,0-2.14.08-3.25-2-.82-3.57-1.43-3.57-3.76A3.4,3.4,0,0,1,21,14.92Zm2.88,3.49c0-.88,0-1.83.06-2.69a1.78,1.78,0,0,0-1.24.4,1.3,1.3,0,0,0-.46,1C22.25,17.73,22.67,18.09,23.89,18.4Zm.67,3.32c0,1-.06,2-.08,2.92a2.27,2.27,0,0,0,1.26-.4,1.37,1.37,0,0,0,.42-1C26.16,22.5,25.78,22,24.56,21.72Z" transform="translate(0 0)"/></svg>